<mxfile host="app.diagrams.net" modified="2020-10-13T07:14:57.021Z" agent="5.0 (Windows NT 10.0; Win64; x64) AppleWebKit/537.36 (KHTML, like Gecko) Chrome/85.0.4183.121 Safari/537.36" etag="jUMSoyTN4VgMoiLH5QWt" version="13.7.9" type="github">
  <diagram id="C5RBs43oDa-KdzZeNtuy" name="Page-1">
    <mxGraphModel dx="1422" dy="804" grid="1" gridSize="10" guides="1" tooltips="1" connect="1" arrows="1" fold="1" page="1" pageScale="1" pageWidth="827" pageHeight="1169" math="0" shadow="0">
      <root>
        <mxCell id="WIyWlLk6GJQsqaUBKTNV-0" />
        <mxCell id="WIyWlLk6GJQsqaUBKTNV-1" parent="WIyWlLk6GJQsqaUBKTNV-0" />
        <mxCell id="zNyXj1Iru4iyU5mS52OU-0" value="Brower&lt;br&gt;" style="rounded=0;whiteSpace=wrap;html=1;" vertex="1" parent="WIyWlLk6GJQsqaUBKTNV-1">
          <mxGeometry x="160" y="30" width="400" height="160" as="geometry" />
        </mxCell>
        <mxCell id="zNyXj1Iru4iyU5mS52OU-2" value="" style="shape=singleArrow;direction=south;whiteSpace=wrap;html=1;" vertex="1" parent="WIyWlLk6GJQsqaUBKTNV-1">
          <mxGeometry x="430" y="140" width="60" height="120" as="geometry" />
        </mxCell>
        <mxCell id="zNyXj1Iru4iyU5mS52OU-4" value="&lt;span&gt;QRCODE&lt;/span&gt;" style="rounded=1;whiteSpace=wrap;html=1;strokeWidth=2;fillWeight=4;hachureGap=8;hachureAngle=45;fillColor=#1ba1e2;sketch=1;" vertex="1" parent="WIyWlLk6GJQsqaUBKTNV-1">
          <mxGeometry x="405" y="80" width="120" height="60" as="geometry" />
        </mxCell>
        <mxCell id="zNyXj1Iru4iyU5mS52OU-5" value="" style="verticalLabelPosition=bottom;verticalAlign=top;html=1;shadow=0;dashed=0;strokeWidth=1;shape=mxgraph.android.phone2;strokeColor=#c0c0c0;" vertex="1" parent="WIyWlLk6GJQsqaUBKTNV-1">
          <mxGeometry x="385" y="260" width="160" height="280" as="geometry" />
        </mxCell>
        <mxCell id="zNyXj1Iru4iyU5mS52OU-7" value="" style="aspect=fixed;html=1;points=[];align=center;image;fontSize=12;image=img/lib/azure2/general/Browser.svg;" vertex="1" parent="WIyWlLk6GJQsqaUBKTNV-1">
          <mxGeometry x="40" y="560" width="262.5" height="210" as="geometry" />
        </mxCell>
        <mxCell id="zNyXj1Iru4iyU5mS52OU-8" value="" style="html=1;verticalLabelPosition=bottom;align=center;labelBackgroundColor=#ffffff;verticalAlign=top;strokeWidth=2;strokeColor=#0080F0;shadow=0;dashed=0;shape=mxgraph.ios7.icons.camera;" vertex="1" parent="WIyWlLk6GJQsqaUBKTNV-1">
          <mxGeometry x="417.5" y="302.6" width="85" height="47.4" as="geometry" />
        </mxCell>
        <mxCell id="zNyXj1Iru4iyU5mS52OU-9" value="Capture QR with Camera" style="text;html=1;strokeColor=none;fillColor=none;align=center;verticalAlign=middle;whiteSpace=wrap;rounded=0;" vertex="1" parent="WIyWlLk6GJQsqaUBKTNV-1">
          <mxGeometry x="250" y="302.6" width="130" height="57.4" as="geometry" />
        </mxCell>
        <mxCell id="zNyXj1Iru4iyU5mS52OU-10" value="" style="shape=singleArrow;direction=south;whiteSpace=wrap;html=1;rotation=49;" vertex="1" parent="WIyWlLk6GJQsqaUBKTNV-1">
          <mxGeometry x="263.59" y="317.96" width="60" height="280" as="geometry" />
        </mxCell>
        <mxCell id="zNyXj1Iru4iyU5mS52OU-11" value="Open scanned url in browser" style="text;html=1;strokeColor=none;fillColor=none;align=center;verticalAlign=middle;whiteSpace=wrap;rounded=0;" vertex="1" parent="WIyWlLk6GJQsqaUBKTNV-1">
          <mxGeometry x="323.59000000000003" y="590" width="130" height="57.4" as="geometry" />
        </mxCell>
        <mxCell id="zNyXj1Iru4iyU5mS52OU-14" value="&lt;h1&gt;Open camera and click photo&lt;/h1&gt;&lt;div&gt;&lt;h1&gt;Upload photo directly to document attachment&lt;/h1&gt;&lt;/div&gt;&lt;p&gt;&lt;br&gt;&lt;/p&gt;" style="text;html=1;strokeColor=none;fillColor=none;spacing=5;spacingTop=-20;whiteSpace=wrap;overflow=hidden;rounded=0;" vertex="1" parent="WIyWlLk6GJQsqaUBKTNV-1">
          <mxGeometry x="140" y="850" width="586.41" height="100" as="geometry" />
        </mxCell>
      </root>
    </mxGraphModel>
  </diagram>
</mxfile>
